<svg xmlns="http://www.w3.org/2000/svg" viewBox="0 0 1200 675">
<g opacity="0.85"><rect x="0" y="90" width="150" height="80" fill="#e0b76a" stroke="#111111" stroke-width="3" opacity="0.55"/><rect x="150" y="90" width="150" height="80" fill="#c9964a" stroke="#111111" stroke-width="3" opacity="0.55"/><rect x="300" y="90" width="150" height="80" fill="#e0b76a" stroke="#111111" stroke-width="3" opacity="0.55"/><rect x="450" y="90" width="150" height="80" fill="#c9964a" stroke="#111111" stroke-width="3" opacity="0.55"/><rect x="600" y="90" width="150" height="80" fill="#e0b76a" stroke="#111111" stroke-width="3" opacity="0.55"/><rect x="750" y="90" width="150" height="80" fill="#c9964a" stroke="#111111" stroke-width="3" opacity="0.55"/><rect x="900" y="90" width="150" height="80" fill="#e0b76a" stroke="#111111" stroke-width="3" opacity="0.55"/><rect x="1050" y="90" width="150" height="80" fill="#c9964a" stroke="#111111" stroke-width="3" opacity="0.55"/><rect x="0" y="170" width="150" height="80" fill="#c9964a" stroke="#111111" stroke-width="3" opacity="0.55"/><rect x="150" y="170" width="150" height="80" fill="#e0b76a" stroke="#111111" stroke-width="3" opacity="0.55"/><rect x="300" y="170" width="150" height="80" fill="#c9964a" stroke="#111111" stroke-width="3" opacity="0.55"/><rect x="450" y="170" width="150" height="80" fill="#e0b76a" stroke="#111111" stroke-width="3" opacity="0.55"/><rect x="600" y="170" width="150" height="80" fill="#c9964a" stroke="#111111" stroke-width="3" opacity="0.55"/><rect x="750" y="170" width="150" height="80" fill="#e0b76a" stroke="#111111" stroke-width="3" opacity="0.55"/><rect x="900" y="170" width="150" height="80" fill="#c9964a" stroke="#111111" stroke-width="3" opacity="0.55"/><rect x="1050" y="170" width="150" height="80" fill="#e0b76a" stroke="#111111" stroke-width="3" opacity="0.55"/><rect x="0" y="250" width="150" height="80" fill="#e0b76a" stroke="#111111" stroke-width="3" opacity="0.55"/><rect x="150" y="250" width="150" height="80" fill="#c9964a" stroke="#111111" stroke-width="3" opacity="0.55"/><rect x="300" y="250" width="150" height="80" fill="#e0b76a" stroke="#111111" stroke-width="3" opacity="0.55"/><rect x="450" y="250" width="150" height="80" fill="#c9964a" stroke="#111111" stroke-width="3" opacity="0.55"/><rect x="600" y="250" width="150" height="80" fill="#e0b76a" stroke="#111111" stroke-width="3" opacity="0.55"/><rect x="750" y="250" width="150" height="80" fill="#c9964a" stroke="#111111" stroke-width="3" opacity="0.55"/><rect x="900" y="250" width="150" height="80" fill="#e0b76a" stroke="#111111" stroke-width="3" opacity="0.55"/><rect x="1050" y="250" width="150" height="80" fill="#c9964a" stroke="#111111" stroke-width="3" opacity="0.55"/><rect x="0" y="330" width="150" height="80" fill="#c9964a" stroke="#111111" stroke-width="3" opacity="0.55"/><rect x="150" y="330" width="150" height="80" fill="#e0b76a" stroke="#111111" stroke-width="3" opacity="0.55"/><rect x="300" y="330" width="150" height="80" fill="#c9964a" stroke="#111111" stroke-width="3" opacity="0.55"/><rect x="450" y="330" width="150" height="80" fill="#e0b76a" stroke="#111111" stroke-width="3" opacity="0.55"/><rect x="600" y="330" width="150" height="80" fill="#c9964a" stroke="#111111" stroke-width="3" opacity="0.55"/><rect x="750" y="330" width="150" height="80" fill="#e0b76a" stroke="#111111" stroke-width="3" opacity="0.55"/><rect x="900" y="330" width="150" height="80" fill="#c9964a" stroke="#111111" stroke-width="3" opacity="0.55"/><rect x="1050" y="330" width="150" height="80" fill="#e0b76a" stroke="#111111" stroke-width="3" opacity="0.55"/><rect x="0" y="410" width="150" height="80" fill="#e0b76a" stroke="#111111" stroke-width="3" opacity="0.55"/><rect x="150" y="410" width="150" height="80" fill="#c9964a" stroke="#111111" stroke-width="3" opacity="0.55"/><rect x="300" y="410" width="150" height="80" fill="#e0b76a" stroke="#111111" stroke-width="3" opacity="0.55"/><rect x="450" y="410" width="150" height="80" fill="#c9964a" stroke="#111111" stroke-width="3" opacity="0.55"/><rect x="600" y="410" width="150" height="80" fill="#e0b76a" stroke="#111111" stroke-width="3" opacity="0.55"/><rect x="750" y="410" width="150" height="80" fill="#c9964a" stroke="#111111" stroke-width="3" opacity="0.55"/><rect x="900" y="410" width="150" height="80" fill="#e0b76a" stroke="#111111" stroke-width="3" opacity="0.55"/><rect x="1050" y="410" width="150" height="80" fill="#c9964a" stroke="#111111" stroke-width="3" opacity="0.55"/><rect x="0" y="490" width="150" height="80" fill="#c9964a" stroke="#111111" stroke-width="3" opacity="0.55"/><rect x="150" y="490" width="150" height="80" fill="#e0b76a" stroke="#111111" stroke-width="3" opacity="0.55"/><rect x="300" y="490" width="150" height="80" fill="#c9964a" stroke="#111111" stroke-width="3" opacity="0.55"/><rect x="450" y="490" width="150" height="80" fill="#e0b76a" stroke="#111111" stroke-width="3" opacity="0.55"/><rect x="600" y="490" width="150" height="80" fill="#c9964a" stroke="#111111" stroke-width="3" opacity="0.55"/><rect x="750" y="490" width="150" height="80" fill="#e0b76a" stroke="#111111" stroke-width="3" opacity="0.55"/><rect x="900" y="490" width="150" height="80" fill="#c9964a" stroke="#111111" stroke-width="3" opacity="0.55"/><rect x="1050" y="490" width="150" height="80" fill="#e0b76a" stroke="#111111" stroke-width="3" opacity="0.55"/></g>
</svg>
