<svg xmlns="http://www.w3.org/2000/svg" viewBox="0 0 1200 675">
<g opacity="0.85" fill="#6c88a8" stroke="#111111" stroke-width="4"><rect x="0" y="360" width="55" height="260"/><rect x="70" y="322" width="55" height="298"/><rect x="140" y="284" width="55" height="336"/><rect x="210" y="246" width="55" height="374"/><rect x="280" y="208" width="55" height="412"/><rect x="350" y="360" width="55" height="260"/><rect x="420" y="322" width="55" height="298"/><rect x="490" y="284" width="55" height="336"/><rect x="560" y="246" width="55" height="374"/><rect x="630" y="208" width="55" height="412"/><rect x="700" y="360" width="55" height="260"/><rect x="770" y="322" width="55" height="298"/><rect x="840" y="284" width="55" height="336"/><rect x="910" y="246" width="55" height="374"/><rect x="980" y="208" width="55" height="412"/><rect x="1050" y="360" width="55" height="260"/><rect x="1120" y="322" width="55" height="298"/><rect x="1190" y="284" width="55" height="336"/><path d="M0 620 H1200" stroke="#111111" stroke-width="8"/></g>
</svg>
