<svg xmlns="http://www.w3.org/2000/svg" viewBox="0 0 1200 675">
<g opacity="{{opacity}}"><rect x="30" y="80" width="150" height="105" rx="12" fill="{{secondaryColor}}" stroke="{{outlineColor}}" stroke-width="4" opacity="0.55"/><rect x="220" y="80" width="150" height="105" rx="12" fill="{{primaryColor}}" stroke="{{outlineColor}}" stroke-width="4" opacity="0.55"/><rect x="410" y="80" width="150" height="105" rx="12" fill="{{secondaryColor}}" stroke="{{outlineColor}}" stroke-width="4" opacity="0.55"/><rect x="600" y="80" width="150" height="105" rx="12" fill="{{primaryColor}}" stroke="{{outlineColor}}" stroke-width="4" opacity="0.55"/><rect x="790" y="80" width="150" height="105" rx="12" fill="{{secondaryColor}}" stroke="{{outlineColor}}" stroke-width="4" opacity="0.55"/><rect x="980" y="80" width="150" height="105" rx="12" fill="{{primaryColor}}" stroke="{{outlineColor}}" stroke-width="4" opacity="0.55"/><rect x="30" y="230" width="150" height="105" rx="12" fill="{{secondaryColor}}" stroke="{{outlineColor}}" stroke-width="4" opacity="0.55"/><rect x="220" y="230" width="150" height="105" rx="12" fill="{{primaryColor}}" stroke="{{outlineColor}}" stroke-width="4" opacity="0.55"/><rect x="410" y="230" width="150" height="105" rx="12" fill="{{secondaryColor}}" stroke="{{outlineColor}}" stroke-width="4" opacity="0.55"/><rect x="600" y="230" width="150" height="105" rx="12" fill="{{primaryColor}}" stroke="{{outlineColor}}" stroke-width="4" opacity="0.55"/><rect x="790" y="230" width="150" height="105" rx="12" fill="{{secondaryColor}}" stroke="{{outlineColor}}" stroke-width="4" opacity="0.55"/><rect x="980" y="230" width="150" height="105" rx="12" fill="{{primaryColor}}" stroke="{{outlineColor}}" stroke-width="4" opacity="0.55"/><rect x="30" y="380" width="150" height="105" rx="12" fill="{{secondaryColor}}" stroke="{{outlineColor}}" stroke-width="4" opacity="0.55"/><rect x="220" y="380" width="150" height="105" rx="12" fill="{{primaryColor}}" stroke="{{outlineColor}}" stroke-width="4" opacity="0.55"/><rect x="410" y="380" width="150" height="105" rx="12" fill="{{secondaryColor}}" stroke="{{outlineColor}}" stroke-width="4" opacity="0.55"/><rect x="600" y="380" width="150" height="105" rx="12" fill="{{primaryColor}}" stroke="{{outlineColor}}" stroke-width="4" opacity="0.55"/><rect x="790" y="380" width="150" height="105" rx="12" fill="{{secondaryColor}}" stroke="{{outlineColor}}" stroke-width="4" opacity="0.55"/><rect x="980" y="380" width="150" height="105" rx="12" fill="{{primaryColor}}" stroke="{{outlineColor}}" stroke-width="4" opacity="0.55"/><path d="M0 540 H1200" stroke="{{outlineColor}}" stroke-width="8" opacity="0.5"/></g>
</svg>
