<svg xmlns="http://www.w3.org/2000/svg" viewBox="0 0 1200 675">
<g opacity="0.85"><g transform="translate(120,160)"><path d="M0 30 L45 0 L100 20 L85 60 L25 70Z" fill="#a8c4d8" stroke="#111111" stroke-width="4"/><ellipse cx="50" cy="90" rx="45" ry="8" fill="#6c88a8" opacity="0.18"/></g><g transform="translate(270,225)"><path d="M0 30 L45 0 L100 20 L85 60 L25 70Z" fill="#6c88a8" stroke="#111111" stroke-width="4"/><ellipse cx="50" cy="90" rx="45" ry="8" fill="#6c88a8" opacity="0.18"/></g><g transform="translate(420,290)"><path d="M0 30 L45 0 L100 20 L85 60 L25 70Z" fill="#a8c4d8" stroke="#111111" stroke-width="4"/><ellipse cx="50" cy="90" rx="45" ry="8" fill="#6c88a8" opacity="0.18"/></g><g transform="translate(570,355)"><path d="M0 30 L45 0 L100 20 L85 60 L25 70Z" fill="#6c88a8" stroke="#111111" stroke-width="4"/><ellipse cx="50" cy="90" rx="45" ry="8" fill="#6c88a8" opacity="0.18"/></g><g transform="translate(720,160)"><path d="M0 30 L45 0 L100 20 L85 60 L25 70Z" fill="#a8c4d8" stroke="#111111" stroke-width="4"/><ellipse cx="50" cy="90" rx="45" ry="8" fill="#6c88a8" opacity="0.18"/></g><g transform="translate(870,225)"><path d="M0 30 L45 0 L100 20 L85 60 L25 70Z" fill="#6c88a8" stroke="#111111" stroke-width="4"/><ellipse cx="50" cy="90" rx="45" ry="8" fill="#6c88a8" opacity="0.18"/></g><g transform="translate(1020,290)"><path d="M0 30 L45 0 L100 20 L85 60 L25 70Z" fill="#a8c4d8" stroke="#111111" stroke-width="4"/><ellipse cx="50" cy="90" rx="45" ry="8" fill="#6c88a8" opacity="0.18"/></g></g>
</svg>
