<svg xmlns="http://www.w3.org/2000/svg" viewBox="0 0 800 500"><g stroke="{{outlineColor}}" stroke-width="8" stroke-linecap="round" stroke-linejoin="round"><rect x="80" y="230" width="140" height="170" fill="{{bodyColor}}"/><path d="M80 230 L150 170 L220 230" fill="{{secondaryColor}}"/><rect x="250" y="200" width="130" height="200" fill="{{secondaryColor}}"/><path d="M250 200 H380 L360 150 H270 Z" fill="{{bodyColor}}"/><rect x="410" y="245" width="140" height="155" fill="{{bodyColor}}"/><path d="M410 245 Q480 170 550 245" fill="{{secondaryColor}}"/><rect x="580" y="220" width="140" height="180" fill="{{secondaryColor}}"/><path d="M580 220 L650 160 L720 220" fill="{{bodyColor}}"/><path d="M125 400V320H175V400M292 400V300H338V400M455 400V320H505V400M625 400V310H675V400" fill="{{glassColor}}"/><path d="M60 438 H740" stroke="{{outlineColor}}" stroke-width="10"/></g></svg>