<svg xmlns="http://www.w3.org/2000/svg" viewBox="0 0 1200 675">
<g opacity="0.85" fill="#ffffff"><circle cx="20" cy="25" r="2"/><circle cx="117" cy="78" r="3"/><circle cx="214" cy="131" r="4"/><circle cx="311" cy="184" r="2"/><circle cx="408" cy="237" r="3"/><circle cx="505" cy="290" r="4"/><circle cx="602" cy="343" r="2"/><circle cx="699" cy="396" r="3"/><circle cx="796" cy="449" r="4"/><circle cx="893" cy="502" r="2"/><circle cx="990" cy="55" r="3"/><circle cx="1087" cy="108" r="4"/><circle cx="24" cy="161" r="2"/><circle cx="121" cy="214" r="3"/><circle cx="218" cy="267" r="4"/><circle cx="315" cy="320" r="2"/><circle cx="412" cy="373" r="3"/><circle cx="509" cy="426" r="4"/><circle cx="606" cy="479" r="2"/><circle cx="703" cy="32" r="3"/><circle cx="800" cy="85" r="4"/><circle cx="897" cy="138" r="2"/><circle cx="994" cy="191" r="3"/><circle cx="1091" cy="244" r="4"/><circle cx="28" cy="297" r="2"/><circle cx="125" cy="350" r="3"/><circle cx="222" cy="403" r="4"/><circle cx="319" cy="456" r="2"/><circle cx="416" cy="509" r="3"/><circle cx="513" cy="62" r="4"/><circle cx="610" cy="115" r="2"/><circle cx="707" cy="168" r="3"/><circle cx="804" cy="221" r="4"/><circle cx="901" cy="274" r="2"/><circle cx="998" cy="327" r="3"/><circle cx="1095" cy="380" r="4"/><circle cx="32" cy="433" r="2"/><circle cx="129" cy="486" r="3"/><circle cx="226" cy="39" r="4"/><circle cx="323" cy="92" r="2"/><circle cx="420" cy="145" r="3"/><circle cx="517" cy="198" r="4"/><circle cx="614" cy="251" r="2"/><circle cx="711" cy="304" r="3"/><circle cx="808" cy="357" r="4"/><circle cx="905" cy="410" r="2"/></g>
</svg>
