<svg xmlns="http://www.w3.org/2000/svg" viewBox="0 0 1200 675">
<g opacity="0.85" fill="none" stroke-width="4"><path d="M600 390 L80 675" stroke="#3be7ff"/><path d="M600 390 L175 675" stroke="#3be7ff"/><path d="M600 390 L270 675" stroke="#3be7ff"/><path d="M600 390 L365 675" stroke="#3be7ff"/><path d="M600 390 L460 675" stroke="#3be7ff"/><path d="M600 390 L555 675" stroke="#3be7ff"/><path d="M600 390 L650 675" stroke="#3be7ff"/><path d="M600 390 L745 675" stroke="#3be7ff"/><path d="M600 390 L840 675" stroke="#3be7ff"/><path d="M600 390 L935 675" stroke="#3be7ff"/><path d="M600 390 L1030 675" stroke="#3be7ff"/><path d="M600 390 L1125 675" stroke="#3be7ff"/><path d="M0 420 H1200" stroke="#b64cff"/><path d="M0 458 H1200" stroke="#b64cff"/><path d="M0 496 H1200" stroke="#b64cff"/><path d="M0 534 H1200" stroke="#b64cff"/><path d="M0 572 H1200" stroke="#b64cff"/><path d="M0 610 H1200" stroke="#b64cff"/><path d="M0 648 H1200" stroke="#b64cff"/></g>
</svg>
