<svg xmlns="http://www.w3.org/2000/svg" viewBox="0 0 1200 675">
<rect width="1200" height="675" fill="#4d4162" opacity="0.16"/><g opacity="0.85"><path d="M70 160 C45 210 95 255 70 310 C40 360 100 415 70 470" fill="none" stroke="#8a76a8" stroke-width="6" opacity="0.45"/><path d="M190 160 C165 210 215 255 190 310 C160 360 220 415 190 470" fill="none" stroke="#8a76a8" stroke-width="6" opacity="0.45"/><path d="M310 160 C285 210 335 255 310 310 C280 360 340 415 310 470" fill="none" stroke="#8a76a8" stroke-width="6" opacity="0.45"/><path d="M430 160 C405 210 455 255 430 310 C400 360 460 415 430 470" fill="none" stroke="#8a76a8" stroke-width="6" opacity="0.45"/><path d="M550 160 C525 210 575 255 550 310 C520 360 580 415 550 470" fill="none" stroke="#8a76a8" stroke-width="6" opacity="0.45"/><path d="M670 160 C645 210 695 255 670 310 C640 360 700 415 670 470" fill="none" stroke="#8a76a8" stroke-width="6" opacity="0.45"/><path d="M790 160 C765 210 815 255 790 310 C760 360 820 415 790 470" fill="none" stroke="#8a76a8" stroke-width="6" opacity="0.45"/><path d="M910 160 C885 210 935 255 910 310 C880 360 940 415 910 470" fill="none" stroke="#8a76a8" stroke-width="6" opacity="0.45"/><path d="M1030 160 C1005 210 1055 255 1030 310 C1000 360 1060 415 1030 470" fill="none" stroke="#8a76a8" stroke-width="6" opacity="0.45"/><path d="M1150 160 C1125 210 1175 255 1150 310 C1120 360 1180 415 1150 470" fill="none" stroke="#8a76a8" stroke-width="6" opacity="0.45"/></g>
</svg>
