<svg xmlns="http://www.w3.org/2000/svg" viewBox="0 0 800 450"><path d="M-50 45 L180 30" stroke="{{lineColor}}" stroke-width="6" stroke-linecap="round" opacity="0.25"/><path d="M-25 87 L235 72" stroke="{{lineColor}}" stroke-width="9" stroke-linecap="round" opacity="0.35"/><path d="M0 129 L290 114" stroke="{{lineColor}}" stroke-width="12" stroke-linecap="round" opacity="0.45"/><path d="M25 171 L345 156" stroke="{{lineColor}}" stroke-width="15" stroke-linecap="round" opacity="0.55"/><path d="M50 213 L400 198" stroke="{{lineColor}}" stroke-width="6" stroke-linecap="round" opacity="0.65"/><path d="M75 255 L455 240" stroke="{{lineColor}}" stroke-width="9" stroke-linecap="round" opacity="0.25"/><path d="M100 297 L510 282" stroke="{{lineColor}}" stroke-width="12" stroke-linecap="round" opacity="0.35"/><path d="M125 339 L565 324" stroke="{{lineColor}}" stroke-width="15" stroke-linecap="round" opacity="0.45"/><path d="M150 45 L620 30" stroke="{{lineColor}}" stroke-width="6" stroke-linecap="round" opacity="0.55"/><path d="M175 87 L675 72" stroke="{{lineColor}}" stroke-width="9" stroke-linecap="round" opacity="0.65"/><path d="M200 129 L730 114" stroke="{{lineColor}}" stroke-width="12" stroke-linecap="round" opacity="0.25"/><path d="M225 171 L785 156" stroke="{{lineColor}}" stroke-width="15" stroke-linecap="round" opacity="0.35"/><path d="M250 213 L840 198" stroke="{{lineColor}}" stroke-width="6" stroke-linecap="round" opacity="0.45"/><path d="M275 255 L895 240" stroke="{{lineColor}}" stroke-width="9" stroke-linecap="round" opacity="0.55"/><path d="M300 297 L950 282" stroke="{{lineColor}}" stroke-width="12" stroke-linecap="round" opacity="0.65"/><path d="M325 339 L1005 324" stroke="{{lineColor}}" stroke-width="15" stroke-linecap="round" opacity="0.25"/><path d="M350 45 L1060 30" stroke="{{lineColor}}" stroke-width="6" stroke-linecap="round" opacity="0.35"/><path d="M375 87 L1115 72" stroke="{{lineColor}}" stroke-width="9" stroke-linecap="round" opacity="0.45"/></svg>