<svg xmlns="http://www.w3.org/2000/svg" viewBox="0 0 1200 675">
<g opacity="{{opacity}}" stroke="{{primaryColor}}" stroke-width="10" stroke-linecap="round"><line x1="600" y1="110" x2="600" y2="20" transform="rotate(0 600 160)"/><line x1="600" y1="110" x2="600" y2="20" transform="rotate(30 600 160)"/><line x1="600" y1="110" x2="600" y2="20" transform="rotate(60 600 160)"/><line x1="600" y1="110" x2="600" y2="20" transform="rotate(90 600 160)"/><line x1="600" y1="110" x2="600" y2="20" transform="rotate(120 600 160)"/><line x1="600" y1="110" x2="600" y2="20" transform="rotate(150 600 160)"/><line x1="600" y1="110" x2="600" y2="20" transform="rotate(180 600 160)"/><line x1="600" y1="110" x2="600" y2="20" transform="rotate(210 600 160)"/><line x1="600" y1="110" x2="600" y2="20" transform="rotate(240 600 160)"/><line x1="600" y1="110" x2="600" y2="20" transform="rotate(270 600 160)"/><line x1="600" y1="110" x2="600" y2="20" transform="rotate(300 600 160)"/><line x1="600" y1="110" x2="600" y2="20" transform="rotate(330 600 160)"/></g><circle cx="600" cy="160" r="70" fill="{{primaryColor}}" opacity="{{opacity}}"/>
</svg>
