<svg xmlns="http://www.w3.org/2000/svg" viewBox="0 0 1200 675">
<g opacity="0.85"><g transform="translate(0,0)"><rect x="30" y="260" width="28" height="350" fill="#6c88a8" stroke="#111111" stroke-width="4"/><rect x="145" y="260" width="28" height="350" fill="#6c88a8" stroke="#111111" stroke-width="4"/><path d="M15 260 H190" stroke="#6c88a8" stroke-width="35" stroke-linecap="round"/></g><g transform="translate(230,0)"><rect x="30" y="260" width="28" height="350" fill="#6c88a8" stroke="#111111" stroke-width="4"/><rect x="145" y="260" width="28" height="350" fill="#6c88a8" stroke="#111111" stroke-width="4"/><path d="M15 260 H190" stroke="#6c88a8" stroke-width="35" stroke-linecap="round"/></g><g transform="translate(460,0)"><rect x="30" y="260" width="28" height="350" fill="#6c88a8" stroke="#111111" stroke-width="4"/><rect x="145" y="260" width="28" height="350" fill="#6c88a8" stroke="#111111" stroke-width="4"/><path d="M15 260 H190" stroke="#6c88a8" stroke-width="35" stroke-linecap="round"/></g><g transform="translate(690,0)"><rect x="30" y="260" width="28" height="350" fill="#6c88a8" stroke="#111111" stroke-width="4"/><rect x="145" y="260" width="28" height="350" fill="#6c88a8" stroke="#111111" stroke-width="4"/><path d="M15 260 H190" stroke="#6c88a8" stroke-width="35" stroke-linecap="round"/></g><g transform="translate(920,0)"><rect x="30" y="260" width="28" height="350" fill="#6c88a8" stroke="#111111" stroke-width="4"/><rect x="145" y="260" width="28" height="350" fill="#6c88a8" stroke="#111111" stroke-width="4"/><path d="M15 260 H190" stroke="#6c88a8" stroke-width="35" stroke-linecap="round"/></g><g transform="translate(1150,0)"><rect x="30" y="260" width="28" height="350" fill="#6c88a8" stroke="#111111" stroke-width="4"/><rect x="145" y="260" width="28" height="350" fill="#6c88a8" stroke="#111111" stroke-width="4"/><path d="M15 260 H190" stroke="#6c88a8" stroke-width="35" stroke-linecap="round"/></g><path d="M0 615 H1200" stroke="#a8c4d8" stroke-width="12"/></g>
</svg>
