<svg xmlns="http://www.w3.org/2000/svg" viewBox="0 0 1200 675">
<rect width="1200" height="675" fill="{{primaryColor}}" opacity="0.15"/><path d="M0 90 l70 -35 l80 35 l-25 68 l-95 20 l-55 -55z" fill="{{secondaryColor}}" stroke="{{outlineColor}}" stroke-width="4" opacity="0.55"/><path d="M130 161 l70 -35 l80 35 l-25 68 l-95 20 l-55 -55z" fill="{{primaryColor}}" stroke="{{outlineColor}}" stroke-width="4" opacity="0.55"/><path d="M260 232 l70 -35 l80 35 l-25 68 l-95 20 l-55 -55z" fill="{{secondaryColor}}" stroke="{{outlineColor}}" stroke-width="4" opacity="0.55"/><path d="M390 303 l70 -35 l80 35 l-25 68 l-95 20 l-55 -55z" fill="{{primaryColor}}" stroke="{{outlineColor}}" stroke-width="4" opacity="0.55"/><path d="M520 374 l70 -35 l80 35 l-25 68 l-95 20 l-55 -55z" fill="{{secondaryColor}}" stroke="{{outlineColor}}" stroke-width="4" opacity="0.55"/><path d="M650 445 l70 -35 l80 35 l-25 68 l-95 20 l-55 -55z" fill="{{primaryColor}}" stroke="{{outlineColor}}" stroke-width="4" opacity="0.55"/><path d="M780 516 l70 -35 l80 35 l-25 68 l-95 20 l-55 -55z" fill="{{secondaryColor}}" stroke="{{outlineColor}}" stroke-width="4" opacity="0.55"/><path d="M910 587 l70 -35 l80 35 l-25 68 l-95 20 l-55 -55z" fill="{{primaryColor}}" stroke="{{outlineColor}}" stroke-width="4" opacity="0.55"/><path d="M1040 138 l70 -35 l80 35 l-25 68 l-95 20 l-55 -55z" fill="{{secondaryColor}}" stroke="{{outlineColor}}" stroke-width="4" opacity="0.55"/><path d="M1170 209 l70 -35 l80 35 l-25 68 l-95 20 l-55 -55z" fill="{{primaryColor}}" stroke="{{outlineColor}}" stroke-width="4" opacity="0.55"/><path d="M120 280 l70 -35 l80 35 l-25 68 l-95 20 l-55 -55z" fill="{{secondaryColor}}" stroke="{{outlineColor}}" stroke-width="4" opacity="0.55"/><path d="M250 351 l70 -35 l80 35 l-25 68 l-95 20 l-55 -55z" fill="{{primaryColor}}" stroke="{{outlineColor}}" stroke-width="4" opacity="0.55"/><path d="M380 422 l70 -35 l80 35 l-25 68 l-95 20 l-55 -55z" fill="{{secondaryColor}}" stroke="{{outlineColor}}" stroke-width="4" opacity="0.55"/><path d="M510 493 l70 -35 l80 35 l-25 68 l-95 20 l-55 -55z" fill="{{primaryColor}}" stroke="{{outlineColor}}" stroke-width="4" opacity="0.55"/><path d="M640 564 l70 -35 l80 35 l-25 68 l-95 20 l-55 -55z" fill="{{secondaryColor}}" stroke="{{outlineColor}}" stroke-width="4" opacity="0.55"/><path d="M770 115 l70 -35 l80 35 l-25 68 l-95 20 l-55 -55z" fill="{{primaryColor}}" stroke="{{outlineColor}}" stroke-width="4" opacity="0.55"/><path d="M900 186 l70 -35 l80 35 l-25 68 l-95 20 l-55 -55z" fill="{{secondaryColor}}" stroke="{{outlineColor}}" stroke-width="4" opacity="0.55"/><path d="M1030 257 l70 -35 l80 35 l-25 68 l-95 20 l-55 -55z" fill="{{primaryColor}}" stroke="{{outlineColor}}" stroke-width="4" opacity="0.55"/><path d="M1160 328 l70 -35 l80 35 l-25 68 l-95 20 l-55 -55z" fill="{{secondaryColor}}" stroke="{{outlineColor}}" stroke-width="4" opacity="0.55"/><path d="M110 399 l70 -35 l80 35 l-25 68 l-95 20 l-55 -55z" fill="{{primaryColor}}" stroke="{{outlineColor}}" stroke-width="4" opacity="0.55"/>
</svg>
