<svg xmlns="http://www.w3.org/2000/svg" viewBox="0 0 1200 675">
<g opacity="{{opacity}}"><path d="M60 0 C30 100 95 175 55 285" fill="none" stroke="{{primaryColor}}" stroke-width="12" stroke-linecap="round"/><ellipse cx="80" cy="110" rx="26" ry="12" fill="{{secondaryColor}}" transform="rotate(-30 80 110)"/><path d="M145 0 C115 100 180 175 140 285" fill="none" stroke="{{primaryColor}}" stroke-width="12" stroke-linecap="round"/><ellipse cx="165" cy="165" rx="26" ry="12" fill="{{secondaryColor}}" transform="rotate(-21 165 165)"/><path d="M230 0 C200 100 265 175 225 285" fill="none" stroke="{{primaryColor}}" stroke-width="12" stroke-linecap="round"/><ellipse cx="250" cy="220" rx="26" ry="12" fill="{{secondaryColor}}" transform="rotate(-12 250 220)"/><path d="M315 0 C285 100 350 175 310 285" fill="none" stroke="{{primaryColor}}" stroke-width="12" stroke-linecap="round"/><ellipse cx="335" cy="110" rx="26" ry="12" fill="{{secondaryColor}}" transform="rotate(-3 335 110)"/><path d="M400 0 C370 100 435 175 395 285" fill="none" stroke="{{primaryColor}}" stroke-width="12" stroke-linecap="round"/><ellipse cx="420" cy="165" rx="26" ry="12" fill="{{secondaryColor}}" transform="rotate(6 420 165)"/><path d="M485 0 C455 100 520 175 480 285" fill="none" stroke="{{primaryColor}}" stroke-width="12" stroke-linecap="round"/><ellipse cx="505" cy="220" rx="26" ry="12" fill="{{secondaryColor}}" transform="rotate(15 505 220)"/><path d="M570 0 C540 100 605 175 565 285" fill="none" stroke="{{primaryColor}}" stroke-width="12" stroke-linecap="round"/><ellipse cx="590" cy="110" rx="26" ry="12" fill="{{secondaryColor}}" transform="rotate(24 590 110)"/><path d="M655 0 C625 100 690 175 650 285" fill="none" stroke="{{primaryColor}}" stroke-width="12" stroke-linecap="round"/><ellipse cx="675" cy="165" rx="26" ry="12" fill="{{secondaryColor}}" transform="rotate(33 675 165)"/><path d="M740 0 C710 100 775 175 735 285" fill="none" stroke="{{primaryColor}}" stroke-width="12" stroke-linecap="round"/><ellipse cx="760" cy="220" rx="26" ry="12" fill="{{secondaryColor}}" transform="rotate(42 760 220)"/><path d="M825 0 C795 100 860 175 820 285" fill="none" stroke="{{primaryColor}}" stroke-width="12" stroke-linecap="round"/><ellipse cx="845" cy="110" rx="26" ry="12" fill="{{secondaryColor}}" transform="rotate(51 845 110)"/><path d="M910 0 C880 100 945 175 905 285" fill="none" stroke="{{primaryColor}}" stroke-width="12" stroke-linecap="round"/><ellipse cx="930" cy="165" rx="26" ry="12" fill="{{secondaryColor}}" transform="rotate(60 930 165)"/><path d="M995 0 C965 100 1030 175 990 285" fill="none" stroke="{{primaryColor}}" stroke-width="12" stroke-linecap="round"/><ellipse cx="1015" cy="220" rx="26" ry="12" fill="{{secondaryColor}}" transform="rotate(69 1015 220)"/><path d="M1080 0 C1050 100 1115 175 1075 285" fill="none" stroke="{{primaryColor}}" stroke-width="12" stroke-linecap="round"/><ellipse cx="1100" cy="110" rx="26" ry="12" fill="{{secondaryColor}}" transform="rotate(78 1100 110)"/><path d="M1165 0 C1135 100 1200 175 1160 285" fill="none" stroke="{{primaryColor}}" stroke-width="12" stroke-linecap="round"/><ellipse cx="1185" cy="165" rx="26" ry="12" fill="{{secondaryColor}}" transform="rotate(87 1185 165)"/></g>
</svg>
