<svg xmlns="http://www.w3.org/2000/svg" viewBox="0 0 500 170"><g opacity="{{opacity}}"><path d="M80 40 L94 72 L129 76 L102 98 L110 132 L80 114 L50 132 L58 98 L31 76 L66 72 Z" fill="{{accentColor}}" stroke="{{outlineColor}}" stroke-width="6" stroke-linejoin="round" stroke-linecap="round"/> <path d="M160 40 L174 72 L209 76 L182 98 L190 132 L160 114 L130 132 L138 98 L111 76 L146 72 Z" fill="{{accentColor}}" stroke="{{outlineColor}}" stroke-width="6" stroke-linejoin="round" stroke-linecap="round"/> <path d="M240 40 L254 72 L289 76 L262 98 L270 132 L240 114 L210 132 L218 98 L191 76 L226 72 Z" fill="{{accentColor}}" stroke="{{outlineColor}}" stroke-width="6" stroke-linejoin="round" stroke-linecap="round"/> <path d="M320 40 L334 72 L369 76 L342 98 L350 132 L320 114 L290 132 L298 98 L271 76 L306 72 Z" fill="{{accentColor}}" stroke="{{outlineColor}}" stroke-width="6" stroke-linejoin="round" stroke-linecap="round"/> <path d="M400 40 L414 72 L449 76 L422 98 L430 132 L400 114 L370 132 L378 98 L351 76 L386 72 Z" fill="{{accentColor}}" stroke="{{outlineColor}}" stroke-width="6" stroke-linejoin="round" stroke-linecap="round"/><text x="250" y="158" text-anchor="middle" font-family="Arial" font-size="24" font-weight="700" fill="{{textColor}}">{{label}}</text></g></svg>