<svg xmlns="http://www.w3.org/2000/svg" viewBox="0 0 1200 675">
<g opacity="{{opacity}}"><rect x="0" y="475" width="1200" height="200" fill="{{secondaryColor}}" opacity="0.18"/><path d="M0 520 C35 490 85 550 120 520" fill="none" stroke="{{primaryColor}}" stroke-width="8" stroke-linecap="round"/><path d="M120 542 C155 512 205 572 240 542" fill="none" stroke="{{primaryColor}}" stroke-width="8" stroke-linecap="round"/><path d="M240 520 C275 490 325 550 360 520" fill="none" stroke="{{primaryColor}}" stroke-width="8" stroke-linecap="round"/><path d="M360 542 C395 512 445 572 480 542" fill="none" stroke="{{primaryColor}}" stroke-width="8" stroke-linecap="round"/><path d="M480 520 C515 490 565 550 600 520" fill="none" stroke="{{primaryColor}}" stroke-width="8" stroke-linecap="round"/><path d="M600 542 C635 512 685 572 720 542" fill="none" stroke="{{primaryColor}}" stroke-width="8" stroke-linecap="round"/><path d="M720 520 C755 490 805 550 840 520" fill="none" stroke="{{primaryColor}}" stroke-width="8" stroke-linecap="round"/><path d="M840 542 C875 512 925 572 960 542" fill="none" stroke="{{primaryColor}}" stroke-width="8" stroke-linecap="round"/><path d="M960 520 C995 490 1045 550 1080 520" fill="none" stroke="{{primaryColor}}" stroke-width="8" stroke-linecap="round"/><path d="M1080 542 C1115 512 1165 572 1200 542" fill="none" stroke="{{primaryColor}}" stroke-width="8" stroke-linecap="round"/><path d="M1200 520 C1235 490 1285 550 1320 520" fill="none" stroke="{{primaryColor}}" stroke-width="8" stroke-linecap="round"/></g>
</svg>
