<svg xmlns="http://www.w3.org/2000/svg" viewBox="0 0 1200 675">
<g opacity="0.85"><g transform="translate(0,0)"><rect x="35" y="390" width="30" height="190" fill="#111111" opacity="0.65"/><circle cx="50" cy="350" r="85" fill="#2f8a4b" opacity="0.75"/><circle cx="0" cy="395" r="70" fill="#69b85f" opacity="0.75"/></g><g transform="translate(95,0)"><rect x="35" y="390" width="30" height="190" fill="#111111" opacity="0.65"/><circle cx="50" cy="350" r="85" fill="#2f8a4b" opacity="0.75"/><circle cx="0" cy="395" r="70" fill="#69b85f" opacity="0.75"/></g><g transform="translate(190,0)"><rect x="35" y="390" width="30" height="190" fill="#111111" opacity="0.65"/><circle cx="50" cy="350" r="85" fill="#2f8a4b" opacity="0.75"/><circle cx="0" cy="395" r="70" fill="#69b85f" opacity="0.75"/></g><g transform="translate(285,0)"><rect x="35" y="390" width="30" height="190" fill="#111111" opacity="0.65"/><circle cx="50" cy="350" r="85" fill="#2f8a4b" opacity="0.75"/><circle cx="0" cy="395" r="70" fill="#69b85f" opacity="0.75"/></g><g transform="translate(380,0)"><rect x="35" y="390" width="30" height="190" fill="#111111" opacity="0.65"/><circle cx="50" cy="350" r="85" fill="#2f8a4b" opacity="0.75"/><circle cx="0" cy="395" r="70" fill="#69b85f" opacity="0.75"/></g><g transform="translate(475,0)"><rect x="35" y="390" width="30" height="190" fill="#111111" opacity="0.65"/><circle cx="50" cy="350" r="85" fill="#2f8a4b" opacity="0.75"/><circle cx="0" cy="395" r="70" fill="#69b85f" opacity="0.75"/></g><g transform="translate(570,0)"><rect x="35" y="390" width="30" height="190" fill="#111111" opacity="0.65"/><circle cx="50" cy="350" r="85" fill="#2f8a4b" opacity="0.75"/><circle cx="0" cy="395" r="70" fill="#69b85f" opacity="0.75"/></g><g transform="translate(665,0)"><rect x="35" y="390" width="30" height="190" fill="#111111" opacity="0.65"/><circle cx="50" cy="350" r="85" fill="#2f8a4b" opacity="0.75"/><circle cx="0" cy="395" r="70" fill="#69b85f" opacity="0.75"/></g><g transform="translate(760,0)"><rect x="35" y="390" width="30" height="190" fill="#111111" opacity="0.65"/><circle cx="50" cy="350" r="85" fill="#2f8a4b" opacity="0.75"/><circle cx="0" cy="395" r="70" fill="#69b85f" opacity="0.75"/></g><g transform="translate(855,0)"><rect x="35" y="390" width="30" height="190" fill="#111111" opacity="0.65"/><circle cx="50" cy="350" r="85" fill="#2f8a4b" opacity="0.75"/><circle cx="0" cy="395" r="70" fill="#69b85f" opacity="0.75"/></g><g transform="translate(950,0)"><rect x="35" y="390" width="30" height="190" fill="#111111" opacity="0.65"/><circle cx="50" cy="350" r="85" fill="#2f8a4b" opacity="0.75"/><circle cx="0" cy="395" r="70" fill="#69b85f" opacity="0.75"/></g><g transform="translate(1045,0)"><rect x="35" y="390" width="30" height="190" fill="#111111" opacity="0.65"/><circle cx="50" cy="350" r="85" fill="#2f8a4b" opacity="0.75"/><circle cx="0" cy="395" r="70" fill="#69b85f" opacity="0.75"/></g><g transform="translate(1140,0)"><rect x="35" y="390" width="30" height="190" fill="#111111" opacity="0.65"/><circle cx="50" cy="350" r="85" fill="#2f8a4b" opacity="0.75"/><circle cx="0" cy="395" r="70" fill="#69b85f" opacity="0.75"/></g><g transform="translate(1235,0)"><rect x="35" y="390" width="30" height="190" fill="#111111" opacity="0.65"/><circle cx="50" cy="350" r="85" fill="#2f8a4b" opacity="0.75"/><circle cx="0" cy="395" r="70" fill="#69b85f" opacity="0.75"/></g></g>
</svg>
