<svg xmlns="http://www.w3.org/2000/svg" viewBox="0 0 360 260"><g opacity="0.72" stroke="#bfe9ff" stroke-width="4" stroke-linecap="round"><path d="M75 70 L75 112 M54 91 H96 M60 76 L90 106 M90 76 L60 106"/><path d="M175 40 L175 92 M149 66 H201 M156 48 L194 84 M194 48 L156 84"/><path d="M285 82 L285 128 M262 105 H308 M269 89 L301 121 M301 89 L269 121"/><path d="M120 172 L120 218 M97 195 H143 M104 179 L136 211 M136 179 L104 211"/><path d="M242 166 L242 208 M221 187 H263 M227 172 L257 202 M257 172 L227 202"/></g></svg>