<svg xmlns="http://www.w3.org/2000/svg" viewBox="0 0 300 180">
  <rect width="300" height="180" rx="18" fill="#eef8ff"/>
  <g transform="scale(0.3333333333333333 0.34615384615384615)" stroke="#111111" stroke-width="8" stroke-linecap="round" stroke-linejoin="round">

    <path d="M70 380 C160 310 245 315 320 370 C400 430 500 425 590 335 C680 250 760 285 835 350" fill="none" stroke="{{railColor}}"/>
    <path d="M75 415 C165 345 250 350 325 405 C405 465 505 460 595 370 C685 285 765 320 840 385" fill="none" stroke="{{railColor}}"/>
    <path d="M125 395 L125 470 M265 360 L265 470 M420 420 L420 470 M595 370 L595 470 M755 330 L755 470" stroke="{{supportColor}}"/>
    <path d="M95 455 L820 455" stroke="{{baseColor}}"/>
    <path d="M660 250 C690 205 735 205 765 250" fill="none" stroke="{{archColor}}"/>

  </g>
  <text x="14" y="166" font-family="Arial" font-size="18" font-weight="700" fill="#111111">Motorbike Coaster Track</text>
</svg>
